<?xml version="1.0" encoding="UTF-8"?>
<svg id="Layer_1" data-name="Layer 1" xmlns="http://www.w3.org/2000/svg" xmlns:xlink="http://www.w3.org/1999/xlink" viewBox="0 0 296.45 44.27">
  <defs>
    <style>
      .cls-1 {
        fill: #995be6;
      }

      .cls-2 {
        fill: #231f20;
      }

      .cls-3 {
        filter: url(#drop-shadow-2);
      }
    </style>
    <filter id="drop-shadow-2" filterUnits="userSpaceOnUse">
      <feOffset dx="0" dy="0"/>
      <feGaussianBlur result="blur" stdDeviation="1.21"/>
      <feFlood flood-color="#221f20" flood-opacity=".75"/>
      <feComposite in2="blur" operator="in"/>
      <feComposite in="SourceGraphic"/>
    </filter>
  </defs>
  <g class="cls-3">
    <path class="cls-1" d="M296.45,11.91h-7.16v7.16h-4.74v-7.16h-7.18V7.16h7.18V0h4.74V7.16h7.16v4.76Z"/>
    <g>
      <path class="cls-2" d="M31.95,14.97H6.38v28.81H0V11.8c0-.44,.08-.86,.25-1.25,.16-.39,.39-.74,.67-1.03,.29-.29,.63-.52,1.02-.69,.39-.16,.82-.25,1.28-.25H31.95v6.38Zm-6.52,14.43H4.79v-6.43H25.43v6.43Z"/>
      <path class="cls-2" d="M71.16,43.77h-6.38v-8.64h-22.43v8.64h-6.38V26.18c0-2.57,.44-4.93,1.32-7.09,.88-2.16,2.11-4.02,3.68-5.57,1.57-1.55,3.43-2.76,5.57-3.63,2.14-.87,4.48-1.3,7.02-1.3h14.38c.44,0,.86,.08,1.25,.25,.39,.16,.74,.39,1.03,.69,.29,.29,.52,.64,.69,1.03,.16,.39,.25,.81,.25,1.25v31.97Zm-28.81-15.02h22.43V14.97h-11.21c-.2,0-.61,.03-1.24,.09-.63,.06-1.36,.2-2.18,.43-.83,.23-1.7,.58-2.61,1.06-.92,.47-1.76,1.13-2.53,1.96-.77,.83-1.4,1.88-1.9,3.13-.5,1.25-.75,2.77-.75,4.55v2.58Z"/>
      <path class="cls-2" d="M113.74,41.05c0,.46-.09,.88-.26,1.28s-.4,.73-.69,1.02c-.29,.29-.63,.51-1.02,.67-.39,.16-.81,.25-1.25,.25-.39,0-.79-.07-1.19-.22s-.76-.38-1.07-.71l-23.31-24.34v24.78h-6.38V11.31c0-.65,.18-1.25,.55-1.78,.37-.53,.84-.93,1.41-1.19,.61-.25,1.23-.31,1.87-.18s1.19,.42,1.64,.9l23.31,24.32V8.59h6.38V41.05Z"/>
      <path class="cls-2" d="M152.95,14.97h-14.06v28.81h-6.38V14.97h-14.08v-6.38h34.53v6.38Z"/>
      <path class="cls-2" d="M190.93,43.77h-6.38v-8.64h-22.43v8.64h-6.38V26.18c0-2.57,.44-4.93,1.32-7.09,.88-2.16,2.11-4.02,3.68-5.57,1.57-1.55,3.43-2.76,5.57-3.63,2.14-.87,4.48-1.3,7.02-1.3h14.38c.44,0,.86,.08,1.25,.25,.39,.16,.74,.39,1.03,.69,.29,.29,.52,.64,.69,1.03,.16,.39,.25,.81,.25,1.25v31.97Zm-28.81-15.02h22.43V14.97h-11.21c-.2,0-.61,.03-1.24,.09-.63,.06-1.36,.2-2.18,.43-.83,.23-1.7,.58-2.61,1.06-.92,.47-1.76,1.13-2.53,1.96-.77,.83-1.4,1.88-1.9,3.13-.5,1.25-.75,2.77-.75,4.55v2.58Z"/>
      <path class="cls-2" d="M232.16,33.42c0,1.26-.16,2.39-.48,3.4-.32,1.01-.74,1.89-1.26,2.66-.52,.77-1.14,1.42-1.84,1.96-.7,.54-1.43,.98-2.18,1.33-.75,.34-1.52,.6-2.29,.76-.78,.16-1.51,.25-2.2,.25h-24.61v-6.38h24.61c1.23,0,2.18-.36,2.86-1.08,.68-.72,1.02-1.68,1.02-2.9,0-.59-.09-1.13-.27-1.62s-.44-.92-.77-1.28c-.34-.36-.74-.64-1.23-.83-.48-.2-1.02-.29-1.61-.29h-14.67c-1.03,0-2.14-.18-3.34-.55s-2.3-.96-3.32-1.78c-1.02-.82-1.87-1.89-2.55-3.21-.68-1.33-1.02-2.94-1.02-4.86s.34-3.53,1.02-4.85c.68-1.32,1.53-2.39,2.55-3.21,1.02-.83,2.13-1.42,3.32-1.79,1.19-.37,2.31-.55,3.34-.55h21.72v6.38h-21.72c-1.21,0-2.16,.37-2.83,1.1-.68,.74-1.02,1.71-1.02,2.92s.34,2.2,1.02,2.91c.68,.71,1.62,1.07,2.83,1.07h14.72c.69,.02,1.41,.11,2.18,.28,.77,.17,1.53,.44,2.29,.8,.76,.36,1.48,.81,2.17,1.36,.69,.55,1.3,1.21,1.83,1.98,.53,.77,.95,1.65,1.26,2.65,.31,1,.47,2.13,.47,3.39Z"/>
      <path class="cls-2" d="M270.66,20.36c0,1.46-.18,2.76-.55,3.9-.37,1.15-.86,2.16-1.46,3.03-.61,.88-1.31,1.62-2.12,2.25-.81,.62-1.65,1.13-2.52,1.53-.87,.4-1.75,.69-2.64,.87-.89,.18-1.73,.27-2.52,.27h-2.58v11.56h-6.43v-11.56h-2.55c-.79,0-1.62-.09-2.52-.27-.89-.18-1.78-.47-2.65-.87-.88-.4-1.71-.91-2.52-1.53-.8-.62-1.51-1.37-2.12-2.25-.61-.88-1.1-1.89-1.47-3.04-.37-1.15-.55-2.45-.55-3.89V8.59h6.38v11.78c0,.83,.13,1.58,.39,2.25,.26,.66,.63,1.23,1.1,1.71,.47,.47,1.05,.84,1.73,1.09,.68,.25,1.44,.38,2.27,.38h11.51c.6-.1,1.23-.22,1.87-.38,.64-.16,1.22-.42,1.74-.8,.52-.38,.96-.9,1.3-1.57,.34-.67,.52-1.56,.52-2.67V8.59h6.38v11.78Z"/>
    </g>
  </g>
</svg>